<svg xmlns="http://www.w3.org/2000/svg" viewBox="0 0 320 300"><ellipse cx="160" cy="252" rx="100" ry="14" fill="#000" opacity=".12"/><path d="M55 110 82 72h156l27 38-14 126c-2 16-42 26-77 26s-75-10-77-26Z" fill="#202729" stroke="#101415" stroke-width="5"/><ellipse cx="160" cy="109" rx="105" ry="38" fill="#3b4446" stroke="#111" stroke-width="5"/><ellipse cx="160" cy="111" rx="83" ry="25" fill="#111718" stroke="#707779" stroke-width="4"/><path d="M65 152c56 20 134 20 190 0M62 188c60 18 136 18 196 0M60 220c62 17 138 17 200 0" fill="none" stroke="#596062" stroke-width="5"/><rect x="137" y="102" width="46" height="14" rx="2" fill="#f4ce39"/><text x="160" y="111" font-family="Arial" font-size="6" font-weight="bold" fill="#173b5e" text-anchor="middle">TOPTANK</text></svg>